# xmcd CD database file
#
# Track frame offsets:
#	150
#	17123
#	42384
#	89186
#	111412
#	136792
#	158891
#	176458
#	202730
#	222061
#	243100
#
# Disc length: 3584 seconds
#
# Revision: 0
# Processed by: cddbd v1.5.1PL2 Copyright (c) Steve Scherf et al.
# Submitted via: CDex 1.50
#
DISCID=900dfe0b
DTITLE=Dee Dee Bridgewater - This Is New
DYEAR=2002
DGENRE=Jazz
TTITLE0=This Is New
TTITLE1=Lost In The Stars
TTITLE2=Bilbao Song
TTITLE3=My Ship
TTITLE4=Alabama Song
TTITLE5=Tha Saga Of Jenny
TTITLE6=Youkali
TTITLE7=Stranger Here Myself
TTITLE8=Speak Low
TTITLE9=September Song
TTITLE10=Her I'll Stay
EXTD=YEAR: 2002
EXTT0=
EXTT1=
EXTT2=
EXTT3=
EXTT4=
EXTT5=
EXTT6=
EXTT7=
EXTT8=
EXTT9=
EXTT10=
PLAYORDER=
